<svg width="32" xmlns="http://www.w3.org/2000/svg" height="32" viewBox="238 41 32 32" fill="none">
  <path d="M238.000,73.000L238.000,68.667C238.000,67.244,238.389,65.944,239.167,64.767C239.944,63.589,241.044,62.556,242.467,61.667C243.889,60.778,245.589,60.111,247.567,59.667C249.544,59.222,251.689,59.000,254.000,59.000C256.356,59.000,258.522,59.222,260.500,59.667C262.478,60.111,264.178,60.778,265.600,61.667C267.022,62.556,268.111,63.589,268.867,64.767C269.622,65.944,270.000,67.244,270.000,68.667L270.000,73.000L238.000,73.000ZL238.000,73.000ZM243.667,67.667L264.400,67.667C263.956,66.778,262.722,66.000,260.700,65.333C258.678,64.667,256.444,64.333,254.000,64.333C251.556,64.333,249.322,64.667,247.300,65.333C245.278,66.000,244.067,66.778,243.667,67.667ZL243.667,67.667ZM254.000,57.000C251.778,57.000,249.889,56.222,248.333,54.667C246.778,53.111,246.000,51.222,246.000,49.000C246.000,46.733,246.778,44.833,248.333,43.300C249.889,41.767,251.778,41.000,254.000,41.000C256.267,41.000,258.167,41.767,259.700,43.300C261.233,44.833,262.000,46.733,262.000,49.000C262.000,51.222,261.233,53.111,259.700,54.667C258.167,56.222,256.267,57.000,254.000,57.000ZL254.000,57.000ZM254.000,51.667C254.756,51.667,255.389,51.411,255.900,50.900C256.411,50.389,256.667,49.756,256.667,49.000C256.667,48.244,256.411,47.611,255.900,47.100C255.389,46.589,254.756,46.333,254.000,46.333C253.244,46.333,252.611,46.589,252.100,47.100C251.589,47.611,251.333,48.244,251.333,49.000C251.333,49.756,251.589,50.389,252.100,50.900C252.611,51.411,253.244,51.667,254.000,51.667ZL254.000,51.667ZM254.067,67.667L254.067,67.667ZM254.000,49.000L254.000,49.000Z" style="fill: rgb(212, 212, 212); fill-opacity: 1;" class="fills" />
</svg>