<svg width="20" xmlns="http://www.w3.org/2000/svg" height="32" viewBox="301 60.005 20 32" fill="none"><path d="M321.000,82.005C321.000,84.778,320.027,87.138,318.080,89.085C316.133,91.032,313.773,92.005,311.000,92.005C308.227,92.005,305.867,91.032,303.920,89.085C301.973,87.138,301.000,84.778,301.000,82.005L301.000,67.205C301.000,65.205,301.700,63.505,303.100,62.105C304.500,60.705,306.200,60.005,308.200,60.005C310.200,60.005,311.900,60.705,313.300,62.105C314.700,63.505,315.400,65.205,315.400,67.205L315.400,81.205C315.400,82.432,314.973,83.472,314.120,84.325C313.267,85.178,312.227,85.605,311.000,85.605C309.773,85.605,308.733,85.178,307.880,84.325C307.027,83.472,306.600,82.432,306.600,81.205L306.600,66.405L309.800,66.405L309.800,81.205C309.800,81.552,309.913,81.838,310.140,82.065C310.367,82.292,310.653,82.405,311.000,82.405C311.347,82.405,311.633,82.292,311.860,82.065C312.087,81.838,312.200,81.552,312.200,81.205L312.200,67.205C312.173,66.085,311.780,65.138,311.020,64.365C310.260,63.592,309.320,63.205,308.200,63.205C307.080,63.205,306.133,63.592,305.360,64.365C304.587,65.138,304.200,66.085,304.200,67.205L304.200,82.005C304.173,83.898,304.827,85.505,306.160,86.825C307.493,88.145,309.107,88.805,311.000,88.805C312.867,88.805,314.453,88.145,315.760,86.825C317.067,85.505,317.747,83.898,317.800,82.005L317.800,66.405L321.000,66.405L321.000,82.005ZZ" style="fill: rgb(212, 212, 212); fill-opacity: 1;" class="fills"/></svg>