<svg width="32" xmlns="http://www.w3.org/2000/svg" height="32" viewBox="670 90 32 32" fill="none"><path d="M673.556,122.000C672.578,122.000,671.741,121.652,671.044,120.956C670.348,120.259,670.000,119.422,670.000,118.444L670.000,93.556C670.000,92.578,670.348,91.741,671.044,91.044C671.741,90.348,672.578,90.000,673.556,90.000L698.444,90.000C699.422,90.000,700.259,90.348,700.956,91.044C701.652,91.741,702.000,92.578,702.000,93.556L702.000,118.444C702.000,119.422,701.652,120.259,700.956,120.956C700.259,121.652,699.422,122.000,698.444,122.000L673.556,122.000ZZM673.556,118.444L698.444,118.444L698.444,93.556L673.556,93.556L673.556,118.444ZZM684.222,111.333L686.889,111.333L686.889,100.667L684.222,100.667L684.222,111.333ZZM677.111,111.333L680.667,111.333C681.170,111.333,681.593,111.163,681.933,110.822C682.274,110.481,682.444,110.059,682.444,109.556L682.444,106.000L679.778,106.000L679.778,108.667L678.000,108.667L678.000,103.333L682.444,103.333L682.444,102.444C682.444,101.941,682.274,101.519,681.933,101.178C681.593,100.837,681.170,100.667,680.667,100.667L677.111,100.667C676.607,100.667,676.185,100.837,675.844,101.178C675.504,101.519,675.333,101.941,675.333,102.444L675.333,109.556C675.333,110.059,675.504,110.481,675.844,110.822C676.185,111.163,676.607,111.333,677.111,111.333ZZM689.556,111.333L692.222,111.333L692.222,107.778L695.778,107.778L695.778,105.111L692.222,105.111L692.222,103.333L697.556,103.333L697.556,100.667L689.556,100.667L689.556,111.333ZZM673.556,118.444L673.556,93.556L673.556,118.444ZZ" style="fill: rgb(212, 212, 212); fill-opacity: 1;" class="fills"/></svg>