<svg width="64" xmlns="http://www.w3.org/2000/svg" height="32" viewBox="126 41 64 32" fill="none"><path d="M126.000,73.000L126.000,68.800C126.000,66.889,126.978,65.333,128.933,64.133C130.889,62.933,133.467,62.333,136.667,62.333C137.244,62.333,137.800,62.344,138.333,62.367C138.867,62.389,139.378,62.444,139.867,62.533C139.244,63.467,138.778,64.444,138.467,65.467C138.156,66.489,138.000,67.556,138.000,68.667L138.000,73.000L126.000,73.000ZL126.000,73.000ZM142.000,73.000L142.000,68.667C142.000,67.244,142.389,65.944,143.167,64.767C143.944,63.589,145.044,62.556,146.467,61.667C147.889,60.778,149.589,60.111,151.567,59.667C153.544,59.222,155.689,59.000,158.000,59.000C160.356,59.000,162.522,59.222,164.500,59.667C166.478,60.111,168.178,60.778,169.600,61.667C171.022,62.556,172.111,63.589,172.867,64.767C173.622,65.944,174.000,67.244,174.000,68.667L174.000,73.000L142.000,73.000ZL142.000,73.000ZM178.000,73.000L178.000,68.667C178.000,67.511,177.856,66.422,177.567,65.400C177.278,64.378,176.844,63.422,176.267,62.533C176.756,62.444,177.256,62.389,177.767,62.367C178.278,62.344,178.800,62.333,179.333,62.333C182.533,62.333,185.111,62.922,187.067,64.100C189.022,65.278,190.000,66.844,190.000,68.800L190.000,73.000L178.000,73.000ZL178.000,73.000ZM147.667,67.667L168.400,67.667C167.956,66.778,166.722,66.000,164.700,65.333C162.678,64.667,160.444,64.333,158.000,64.333C155.556,64.333,153.322,64.667,151.300,65.333C149.278,66.000,148.067,66.778,147.667,67.667ZL147.667,67.667ZM136.667,59.667C135.200,59.667,133.944,59.144,132.900,58.100C131.856,57.056,131.333,55.800,131.333,54.333C131.333,52.822,131.856,51.556,132.900,50.533C133.944,49.511,135.200,49.000,136.667,49.000C138.178,49.000,139.444,49.511,140.467,50.533C141.489,51.556,142.000,52.822,142.000,54.333C142.000,55.800,141.489,57.056,140.467,58.100C139.444,59.144,138.178,59.667,136.667,59.667ZL136.667,59.667ZM179.333,59.667C177.867,59.667,176.611,59.144,175.567,58.100C174.522,57.056,174.000,55.800,174.000,54.333C174.000,52.822,174.522,51.556,175.567,50.533C176.611,49.511,177.867,49.000,179.333,49.000C180.844,49.000,182.111,49.511,183.133,50.533C184.156,51.556,184.667,52.822,184.667,54.333C184.667,55.800,184.156,57.056,183.133,58.100C182.111,59.144,180.844,59.667,179.333,59.667ZL179.333,59.667ZM158.000,57.000C155.778,57.000,153.889,56.222,152.333,54.667C150.778,53.111,150.000,51.222,150.000,49.000C150.000,46.733,150.778,44.833,152.333,43.300C153.889,41.767,155.778,41.000,158.000,41.000C160.267,41.000,162.167,41.767,163.700,43.300C165.233,44.833,166.000,46.733,166.000,49.000C166.000,51.222,165.233,53.111,163.700,54.667C162.167,56.222,160.267,57.000,158.000,57.000ZL158.000,57.000ZM158.000,51.667C158.756,51.667,159.389,51.411,159.900,50.900C160.411,50.389,160.667,49.756,160.667,49.000C160.667,48.244,160.411,47.611,159.900,47.100C159.389,46.589,158.756,46.333,158.000,46.333C157.244,46.333,156.611,46.589,156.100,47.100C155.589,47.611,155.333,48.244,155.333,49.000C155.333,49.756,155.589,50.389,156.100,50.900C156.611,51.411,157.244,51.667,158.000,51.667ZL158.000,51.667ZM158.067,67.667L158.067,67.667ZM158.000,49.000L158.000,49.000ZM126.000,61.667" style="fill: rgb(212, 212, 212); fill-opacity: 1;" class="fills"/></svg>