<svg width="32" xmlns="http://www.w3.org/2000/svg" height="32" fill="none"><g class="fills"><rect rx="0" ry="0" width="32" height="32" transform="matrix(1.000000, 0.000000, 0.000000, 1.000000, 0.000000, 0.000000)" class="frame-background"/></g><g class="frame-children"><g class="fills"><rect rx="0" ry="0" width="32" height="8" transform="matrix(1.000000, 0.000000, 0.000000, 1.000000, 0.000000, 0.000000)" class="frame-background"/></g><g class="frame-children"><ellipse cx="4" cy="4" rx="4" ry="4" transform="matrix(1.000000, 0.000000, 0.000000, 1.000000, 0.000000, 0.000000)" style="fill: rgb(212, 212, 212); fill-opacity: 1;" class="fills"/><rect rx="0" ry="0" x="12" y="2" transform="matrix(1.000000, 0.000000, 0.000000, 1.000000, 0.000000, 0.000000)" width="20" height="4" style="fill: rgb(212, 212, 212); fill-opacity: 1;" class="fills"/></g><g class="fills"><rect rx="0" ry="0" y="12" width="32" height="8" transform="matrix(1.000000, 0.000000, 0.000000, 1.000000, 0.000000, 0.000000)" class="frame-background"/></g><g class="frame-children"><ellipse cx="4" cy="16" rx="4" ry="4" transform="matrix(1.000000, 0.000000, 0.000000, 1.000000, 0.000000, 0.000000)" style="fill: rgb(212, 212, 212); fill-opacity: 1;" class="fills"/><rect rx="0" ry="0" x="12" y="14" transform="matrix(1.000000, 0.000000, 0.000000, 1.000000, 0.000000, 0.000000)" width="20" height="4" style="fill: rgb(212, 212, 212); fill-opacity: 1;" class="fills"/></g><g class="fills"><rect rx="0" ry="0" y="24" width="32" height="8" transform="matrix(1.000000, 0.000000, 0.000000, 1.000000, 0.000000, 0.000000)" class="frame-background"/></g><g class="frame-children"><ellipse cx="4" cy="28" rx="4" ry="4" transform="matrix(1.000000, 0.000000, 0.000000, 1.000000, 0.000000, 0.000000)" style="fill: rgb(212, 212, 212); fill-opacity: 1;" class="fills"/><rect rx="0" ry="0" x="12" y="26" transform="matrix(1.000000, 0.000000, 0.000000, 1.000000, 0.000000, 0.000000)" width="20" height="4" style="fill: rgb(212, 212, 212); fill-opacity: 1;" class="fills"/></g></g></svg>