<svg width="32" xmlns="http://www.w3.org/2000/svg" height="32" viewBox="46 41 32 32" fill="none"><path d="M78.000,73.000L71.500,67.000L49.500,67.000C48.620,67.000,47.567,66.287,46.940,65.660C46.313,65.033,46.000,64.280,46.000,63.400L46.000,44.200C46.000,43.320,46.313,42.567,46.940,41.940C47.567,41.313,48.320,41.000,49.200,41.000L74.800,41.000C75.680,41.000,76.433,41.313,77.060,41.940C77.687,42.567,78.000,43.320,78.000,44.200L78.000,73.000ZL78.000,73.000ZM52.000,61.000L70.000,61.000L72.000,67.000L72.000,47.000L52.000,47.000L52.000,61.000ZL52.000,61.000ZM52.000,61.000L52.000,47.000L52.000,61.000ZL52.000,61.000Z" style="fill: rgb(212, 212, 212); fill-opacity: 1;" class="fills"/></svg>