<svg width="32" xmlns="http://www.w3.org/2000/svg" height="32" viewBox="-773 -1834.99 32 32" fill="none"><g style="opacity: 1;"><path d="M-743.489,-1802.990L-754.689,-1814.190C-755.578,-1813.479,-756.600,-1812.916,-757.756,-1812.501C-758.911,-1812.086,-760.141,-1811.879,-761.444,-1811.879C-764.674,-1811.879,-767.407,-1812.997,-769.644,-1815.234C-771.881,-1817.471,-773.000,-1820.205,-773.000,-1823.434C-773.000,-1826.664,-771.881,-1829.397,-769.644,-1831.634C-767.407,-1833.871,-764.674,-1834.990,-761.444,-1834.990C-758.215,-1834.990,-755.481,-1833.871,-753.244,-1831.634C-751.007,-1829.397,-749.889,-1826.664,-749.889,-1823.434C-749.889,-1822.131,-750.096,-1820.901,-750.511,-1819.746C-750.926,-1818.590,-751.489,-1817.568,-752.200,-1816.679L-741.000,-1805.479L-743.489,-1802.990ZZM-761.444,-1815.434C-759.222,-1815.434,-757.333,-1816.212,-755.778,-1817.768C-754.222,-1819.323,-753.444,-1821.212,-753.444,-1823.434C-753.444,-1825.657,-754.222,-1827.546,-755.778,-1829.101C-757.333,-1830.657,-759.222,-1831.434,-761.444,-1831.434C-763.667,-1831.434,-765.556,-1830.657,-767.111,-1829.101C-768.667,-1827.546,-769.444,-1825.657,-769.444,-1823.434C-769.444,-1821.212,-768.667,-1819.323,-767.111,-1817.768C-765.556,-1816.212,-763.667,-1815.434,-761.444,-1815.434ZZ" style="fill: rgb(212, 212, 212); fill-opacity: 1;" class="fills"/></g></svg>